<svg width="464" height="374" viewBox="0 0 464 374" fill="none" xmlns="http://www.w3.org/2000/svg">
<path d="M407.281 110.993H73.014C68.4623 110.993 64.7725 114.683 64.7725 119.235V335.193C64.7725 339.745 68.4623 343.435 73.014 343.435H407.281C411.833 343.435 415.523 339.745 415.523 335.193V119.235C415.523 114.683 411.833 110.993 407.281 110.993Z" fill="#878AA9"/>
<path d="M407.279 345.344H73.0139C67.4176 345.344 62.8633 340.791 62.8633 335.193V119.237C62.8633 113.641 67.4158 109.086 73.0139 109.086H407.279C412.876 109.086 417.43 113.639 417.43 119.237V335.193C417.43 340.789 412.878 345.344 407.279 345.344ZM73.0139 112.902C69.5217 112.902 66.6794 115.745 66.6794 119.237V335.193C66.6794 338.685 69.5217 341.528 73.0139 341.528H407.279C410.772 341.528 413.614 338.685 413.614 335.193V119.237C413.614 115.745 410.772 112.902 407.279 112.902H73.0139Z" fill="#072138"/>
<path d="M402.59 123.5H77.7023C77.4299 123.5 77.209 123.721 77.209 123.994V332.725C77.209 332.997 77.4299 333.218 77.7023 333.218H402.59C402.863 333.218 403.084 332.997 403.084 332.725V123.994C403.084 123.721 402.863 123.5 402.59 123.5Z" fill="#E2F2EF"/>
<path d="M173.339 277.887C173.339 277.887 178.769 278.192 180.141 273.912L171.095 272.863L173.339 277.889V277.887Z" fill="#066956"/>
<path d="M170.9 337.956C170.9 337.956 170.893 326.858 177.575 305.075L182.056 293.827L184.689 285.02L188.639 272.863L232.743 237.807L260.853 246.531L281.575 269.123V281.725L282.868 337.958H170.902L170.9 337.956Z" fill="#EB2128"/>
<path d="M266.526 146.15C266.526 146.15 282.819 148.142 293.108 155.802C294.198 156.614 295.175 157.575 296.026 158.648C298.526 161.802 304.089 169.715 308.324 182.287L318.887 235.355C318.887 235.355 324.482 243.996 321.196 251.308C321.196 251.308 321.665 261.284 320.257 263.465L321.954 295.695L319.944 335.58H279.294C279.294 335.58 278.316 287.215 283.951 276.795C283.951 276.795 286.963 258.053 280.625 251.31L233.283 242.305L227.022 253.613L189.649 258.502L188.793 241.775C188.793 241.775 183.646 234.737 185.325 225.304C185.325 225.304 178.271 209.915 211.136 190.285L266.524 146.152L266.526 146.15Z" fill="#EB2128"/>
<path d="M188.794 241.773C188.794 241.773 186.917 225.161 205.983 208.806C205.983 208.806 271.584 160.185 286.576 151.944L268.861 146.149L210.723 193.312C210.723 193.312 182.401 205.438 185.437 233.474C185.437 233.474 185.208 236.405 188.794 241.773Z" fill="#EF4423"/>
<path d="M219.15 253.348V245.324L264.543 216.932V222.083L219.15 253.348Z" fill="#8C8B83"/>
<path d="M272.402 274.235C272.402 274.235 273.282 276.911 275.589 275.897L274.827 277.546C274.827 277.546 271.191 277.303 270.385 273.264L272.404 274.235H272.402Z" fill="#E18C26"/>
<path d="M274.84 259.74L301.211 245.6L264.543 221.354L219.15 249.195L256.163 269.772L274.84 259.74Z" fill="#072138"/>
<path d="M288.585 214.307L271.938 224.743L301.21 245.858L288.585 214.307Z" fill="#DCD9D1"/>
<path d="M171.692 253.545C171.692 253.545 193.499 256.13 209.414 253.545C209.414 253.545 220.805 245.467 229.851 251.607C235.42 255.386 237.99 255.798 239.142 255.555C239.521 255.476 239.84 255.839 239.713 256.203C239.065 258.057 237.203 261.253 232.275 259.845L241.161 265.176L247.947 269.699C247.947 269.699 246.977 270.829 245.038 270.829C245.038 270.829 246.654 274.868 241.483 274.222C241.483 274.222 242.13 277.291 239.867 277.776C239.867 277.776 240.191 281.653 237.767 281.815H224.842C224.842 281.815 217.572 280.039 212.403 273.576C212.403 273.576 211.457 271.405 201.095 273.252C201.095 273.252 172.484 279.593 164.084 274.798C164.084 274.798 162.808 270.991 171.694 253.543L171.692 253.545Z" fill="#FFD0B0"/>
<path d="M157.518 195.173C157.518 195.173 159.086 166.094 178.526 157.047C178.526 157.047 192.949 150.585 213.018 145.738L274.163 144.122L212.683 192.005C212.683 192.005 180.759 212.884 185.994 236.326C185.994 236.326 183.231 230.067 182.603 221.021L176.646 252.684L186.2 254.576C186.2 254.576 166.614 253.006 173.511 277.885L160.058 276.624C154.839 276.134 150.164 273.025 147.673 268.274C145.847 264.789 144.772 259.944 145.918 253.328C145.918 253.328 150.935 237.172 157.52 195.169L157.518 195.173Z" fill="#039B81"/>
<path d="M252.611 114.946C252.611 114.946 245.456 134.897 248.67 140.915L260.846 113.25L252.611 114.946Z" fill="#0D142D"/>
<path d="M218.687 114.112L217.713 152.997C217.713 152.997 229.881 167.532 252.59 151.539L251.66 111.835L218.685 114.112H218.687Z" fill="#FFD0B0"/>
<path d="M216.365 84.5972C216.365 84.5972 210.671 115.176 221.788 128.427C221.788 128.427 228.296 138.014 235.076 138.316C235.076 138.316 240.764 140.269 249.447 129.785C249.447 129.785 256.452 122.311 256.769 98.8677C256.769 98.8677 258.666 81.5396 246.736 70.6674C246.736 70.6674 229.38 59.5228 217.72 75.7979L216.363 84.5972H216.365Z" fill="#A7704C"/>
<path d="M213.195 82.6091C213.195 82.6091 206.409 111.688 219.656 124.288C219.656 124.288 227.41 133.406 235.488 133.693C235.488 133.693 242.071 135.459 252.611 125.581C252.611 125.581 260.958 118.473 261.335 96.1782C261.335 96.1782 263.598 79.7006 249.381 69.3604C249.381 69.3604 228.702 58.7625 214.809 74.2387L213.193 82.6073L213.195 82.6091Z" fill="#FFD0B0"/>
<path d="M214.149 89.8106C214.149 89.8106 210.773 114.758 218.464 123.051C218.464 123.051 219.456 139.369 217.84 152.389C216.295 164.826 204.127 173.178 192.049 169.83C187.338 168.524 182.661 165.458 179.027 159.298C179.027 159.298 172.031 146.149 188.765 139.115C196.489 135.867 202.328 129.248 204.324 121.111C205.762 115.248 206.148 107.474 204.228 97.2643C204.228 97.2643 200.309 63.4567 227.368 54.0131C227.368 54.0131 248.472 45.6205 262.365 66.9452C262.365 66.9452 272.484 82.7177 270.141 101.787C270.141 101.787 264.971 123.112 273.695 132.482C273.695 132.482 289.205 141.206 282.741 156.391C282.741 156.391 273.049 171.254 254.631 163.499C254.631 163.499 238.759 157.35 254.802 124.404C254.802 124.404 262.054 108.385 257.531 88.6766C257.531 88.6766 246.382 85.2784 242.973 73.946C242.973 73.946 229.982 85.3134 214.151 89.8106H214.149Z" fill="#072138"/>
<path d="M258.208 109.79C258.208 109.79 262.363 112.991 262.363 94.2803C262.363 94.2803 260.553 103.326 258.208 98.4811C258.208 98.4811 258.598 106.559 258.208 109.79Z" fill="#FFD0B0"/>
<path d="M210.852 93.6875C210.852 93.6875 208.632 99.0923 211.901 107.676C212.444 109.103 213.694 109.58 214.204 108.14C214.629 106.94 214.81 104.897 214.357 101.452C214.357 101.452 210.852 98.8585 210.852 93.6875Z" fill="#FFD0B0"/>
<path d="M225.693 101.603C226.618 101.603 227.368 100.853 227.368 99.928C227.368 99.0028 226.618 98.2528 225.693 98.2528C224.768 98.2528 224.018 99.0028 224.018 99.928C224.018 100.853 224.768 101.603 225.693 101.603Z" fill="#0A143A"/>
<path d="M246.167 101.603C247.093 101.603 247.843 100.853 247.843 99.928C247.843 99.0028 247.093 98.2528 246.167 98.2528C245.242 98.2528 244.492 99.0028 244.492 99.928C244.492 100.853 245.242 101.603 246.167 101.603Z" fill="#0A143A"/>
<path d="M220.77 94.4588C220.77 94.4588 223.383 91.9037 230.455 92.9253C230.851 92.9824 231.214 93.1665 231.411 93.4426C231.674 93.8108 231.619 94.2986 229.748 94.4606C229.748 94.4606 223.708 93.5715 220.647 95.8542C220.36 96.0696 219.887 95.8155 220.03 95.5247C220.157 95.2669 220.386 94.9209 220.77 94.4588Z" fill="#0A143A"/>
<path d="M251.866 94.457C251.866 94.457 249.392 91.8945 242.715 92.8978C242.341 92.9548 241.999 93.1371 241.813 93.4132C241.564 93.7814 241.618 94.2692 243.385 94.4367C243.385 94.4367 249.088 93.5623 251.986 95.8542C252.258 96.0696 252.703 95.8174 252.567 95.5265C252.448 95.267 252.23 94.9209 251.866 94.4588V94.457Z" fill="#0A143A"/>
<path d="M238.177 112.991H235.62C234.913 112.991 234.242 112.683 233.779 112.15C233.317 111.614 233.109 110.907 233.211 110.206L234.466 101.57C234.485 101.447 234.599 101.362 234.72 101.38C234.844 101.399 234.928 101.513 234.91 101.635L233.654 110.27C233.571 110.841 233.741 111.419 234.118 111.855C234.496 112.291 235.042 112.542 235.62 112.542H238.177C238.301 112.542 238.402 112.643 238.402 112.766C238.402 112.89 238.301 112.991 238.177 112.991Z" fill="#AE6A3D"/>
<path d="M228.885 119.889C231.396 122.374 237.552 126.753 245.081 119.909C245.622 119.417 245.27 118.515 244.539 118.515H229.446C228.728 118.515 228.373 119.384 228.883 119.889H228.885Z" fill="#A7704C"/>
<path d="M236.2 92.016C236.517 92.016 236.773 91.7596 236.773 91.4435C236.773 91.1273 236.517 90.8709 236.2 90.8709C235.884 90.8709 235.628 91.1273 235.628 91.4435C235.628 91.7596 235.884 92.016 236.2 92.016Z" fill="#B2292E"/>
<path d="M224.026 113.486C218.447 113.486 213.905 108.947 213.905 103.365C213.905 97.7835 218.445 93.2439 224.026 93.2439C229.608 93.2439 234.147 97.7835 234.147 103.365C234.147 108.947 229.608 113.486 224.026 113.486ZM224.026 94.1293C218.933 94.1293 214.791 98.2731 214.791 103.365C214.791 108.457 218.935 112.601 224.026 112.601C229.118 112.601 233.262 108.457 233.262 103.365C233.262 98.2731 229.118 94.1293 224.026 94.1293Z" fill="#0C153A"/>
<path d="M249.435 113.486C243.855 113.486 239.313 108.947 239.313 103.365C239.313 97.7835 243.853 93.2439 249.435 93.2439C255.016 93.2439 259.556 97.7835 259.556 103.365C259.556 108.947 255.016 113.486 249.435 113.486ZM249.435 94.1293C244.341 94.1293 240.199 98.2731 240.199 103.365C240.199 108.457 244.343 112.601 249.435 112.601C254.526 112.601 258.67 108.457 258.67 103.365C258.67 98.2731 254.526 94.1293 249.435 94.1293Z" fill="#0C153A"/>
<path d="M233.356 100.269L232.793 99.5857C232.833 99.5525 236.935 96.2371 240.679 99.5967L240.088 100.256C236.917 97.4079 233.5 100.149 233.356 100.269Z" fill="#0C153A"/>
<path d="M241.702 122.322C237.33 119.572 232.792 121.345 231.5 121.954C233.993 123.482 237.547 124.496 241.702 122.322Z" fill="#CE4136"/>
<path d="M229.403 118.473C231.601 119.574 237.474 121.77 244.964 118.677C244.848 118.607 244.71 118.563 244.556 118.563L229.464 118.469C229.444 118.469 229.425 118.473 229.405 118.473H229.403Z" fill="#E6E7E8"/>
<path d="M243.074 258.775C243.013 258.497 240.922 251.027 243.748 251.261C243.763 251.261 243.75 251.275 243.748 251.261L242.89 246.349V246.345C242.89 246.288 242.853 243.967 244.65 244.079C245.41 244.127 246.08 244.593 246.447 245.261C246.833 245.964 247.38 247.192 247.912 249.184C247.919 249.212 247.468 246.793 250.246 247.001C250.848 247.045 251.555 248.076 251.84 248.61L253.066 251.397C253.074 251.413 255.697 249.306 257.95 254.055L260.518 258.784C260.518 258.784 260.518 258.786 260.52 258.788C260.608 258.889 265.404 264.318 267.817 263.655C267.819 263.655 267.823 263.655 267.825 263.651L283.371 255.134L292.949 250.285C292.949 250.285 292.96 250.281 292.965 250.283C293.265 250.346 301.308 252.137 299.191 265.13C299.191 265.137 299.188 265.142 299.182 265.146C298.88 265.384 289.722 272.484 273.636 275.011H269.045C269.045 275.011 269.034 275.011 269.029 275.017C268.881 275.126 266.278 277.012 264.049 276.368C264.04 276.364 264.029 276.368 264.021 276.375C263.865 276.545 261.954 278.491 257.819 277.717C257.814 277.717 257.81 277.717 257.805 277.717C257.643 277.782 254.493 278.995 251.597 277.9C251.592 277.9 251.588 277.896 251.586 277.892C251.378 277.646 244.039 268.891 242.886 265.954C242.886 265.953 242.886 265.951 242.886 265.949C242.866 265.809 242.01 260.019 243.065 258.795C243.07 258.79 243.072 258.782 243.07 258.773L243.074 258.775Z" fill="#FFD0B0"/>
<path d="M211.989 110.727C212.689 110.727 213.256 109.778 213.256 108.608C213.256 107.438 212.689 106.489 211.989 106.489C211.29 106.489 210.723 107.438 210.723 108.608C210.723 109.778 211.29 110.727 211.989 110.727Z" fill="#EB4840"/>
<path d="M260.061 111.422C260.761 111.422 261.328 110.474 261.328 109.304C261.328 108.133 260.761 107.185 260.061 107.185C259.362 107.185 258.795 108.133 258.795 109.304C258.795 110.474 259.362 111.422 260.061 111.422Z" fill="#EB4840"/>
<path d="M205.982 253.556C205.982 253.556 199.813 256.895 201.873 267.679C201.873 267.679 204.471 277.891 211.963 273.183C211.963 273.183 204.581 272.734 204.39 265.025C204.39 265.025 203.178 258.32 209.413 253.543C209.413 253.543 207.554 252.338 205.982 253.554V253.556Z" fill="#26275F"/>
<path d="M272.57 261.216C272.57 261.216 279.913 266.398 275.955 275.446C275.955 275.446 273.726 278.861 271.044 275.013C271.044 275.013 274.38 281.02 278.297 276.173C278.297 276.173 283.254 266.923 274.84 259.997L272.57 261.216Z" fill="#26275F"/>
<path d="M264.543 221.611V216.932L300.243 242.24L301.211 245.858L264.543 221.611Z" fill="#A4A39C"/>
<path d="M255.722 253.782C255.701 253.676 255.675 253.551 255.642 253.409C255.405 252.371 254.348 251.697 253.304 251.909L253.22 251.925L254.057 254.953L255.379 254.416C255.629 254.313 255.775 254.049 255.723 253.782H255.722Z" fill="#E6E7E8"/>
<path d="M243.875 252.282C243.875 252.282 242.833 251.984 242.76 253.354C242.76 253.354 242.717 254.145 243.216 255.454L244.711 255.077L243.875 252.28V252.282Z" fill="#E6E7E8"/>
<path d="M297.247 241.822L288.586 214.307L292.019 214.959L300.242 242.24L297.247 241.822Z" fill="#A4A39C"/>
<path d="M242.757 266.385C242.731 266.385 242.705 266.378 242.681 266.363C238.606 263.812 232.383 260.156 232.321 260.119C232.308 260.111 232.297 260.102 232.288 260.093C229.768 257.354 223.669 256.549 223.606 256.54C223.527 256.531 223.472 256.459 223.483 256.38C223.492 256.303 223.564 256.247 223.643 256.257C223.897 256.29 229.885 257.08 232.483 259.883C232.86 260.106 238.862 263.635 242.832 266.12C242.899 266.162 242.919 266.251 242.878 266.317C242.851 266.361 242.805 266.383 242.757 266.383V266.385Z" fill="#A7704C"/>
<path d="M244.176 270.763H244.174L238.26 270.66C235.664 270.547 228.251 266.153 227.936 265.965C227.868 265.925 227.846 265.838 227.886 265.77C227.927 265.702 228.015 265.68 228.082 265.721C228.159 265.767 235.749 270.264 238.269 270.374L244.18 270.477C244.259 270.477 244.322 270.544 244.32 270.623C244.32 270.7 244.255 270.763 244.176 270.763Z" fill="#A7704C"/>
<path d="M240.988 274.345C239.125 274.345 237.985 274.235 236.78 274.119C235.176 273.964 233.359 273.789 229.418 273.842H229.416C229.339 273.842 229.274 273.78 229.272 273.701C229.272 273.622 229.335 273.557 229.414 273.555C233.374 273.502 235.198 273.677 236.807 273.833C238.006 273.949 239.14 274.058 240.988 274.058C241.067 274.058 241.131 274.122 241.131 274.201C241.131 274.281 241.067 274.345 240.988 274.345Z" fill="#A7704C"/>
<path d="M236.274 278.24C232.977 278.24 228.625 277.822 228.377 277.798C228.297 277.791 228.24 277.721 228.248 277.642C228.255 277.563 228.325 277.506 228.404 277.513C228.487 277.521 236.753 278.316 239.179 277.747C239.256 277.729 239.333 277.776 239.35 277.854C239.368 277.931 239.321 278.008 239.243 278.025C238.575 278.181 237.496 278.238 236.274 278.238V278.24Z" fill="#A7704C"/>
<path d="M227.31 273.333C224.787 273.333 222.802 270.21 222.717 270.078C222.675 270.012 222.695 269.923 222.763 269.881C222.83 269.839 222.918 269.859 222.96 269.925C222.981 269.956 224.947 273.047 227.31 273.047C227.39 273.047 227.454 273.112 227.454 273.191C227.454 273.27 227.39 273.334 227.31 273.334V273.333Z" fill="#A7704C"/>
<path d="M262.073 266.998C262.062 266.998 262.051 266.998 262.04 266.994C259.529 266.4 257.879 264.905 256.937 263.756C256.342 263.031 255.91 262.19 255.652 261.256L253.082 251.966C253.062 251.89 253.106 251.811 253.181 251.791C253.257 251.77 253.336 251.815 253.356 251.89L255.926 261.181C256.175 262.077 256.589 262.882 257.158 263.576C258.073 264.692 259.672 266.14 262.106 266.716C262.183 266.735 262.231 266.812 262.213 266.888C262.198 266.954 262.139 266.998 262.075 266.998H262.073Z" fill="#A7704C"/>
<path d="M257.468 269.47C257.444 269.47 257.42 269.465 257.398 269.452L254.874 268.012C253.414 267.179 252.247 265.901 251.588 264.414C251.183 263.497 251.093 262.827 251.082 262.724L247.835 251.065C247.813 250.99 247.859 250.911 247.934 250.889C248.01 250.867 248.089 250.913 248.111 250.988L251.362 262.657C251.362 262.657 251.365 262.674 251.365 262.681C251.365 262.689 251.437 263.364 251.85 264.298C252.483 265.73 253.608 266.961 255.016 267.764L257.54 269.203C257.608 269.242 257.632 269.331 257.593 269.399C257.567 269.445 257.52 269.47 257.47 269.47H257.468Z" fill="#A7704C"/>
<path d="M253.218 271.105C253.198 271.105 253.178 271.101 253.158 271.092C247.335 268.36 246.376 261.63 246.367 261.562C245.947 259.695 245.301 257.538 244.78 255.806C244.373 254.449 244.078 253.468 244.036 253.101C244.027 253.022 244.084 252.952 244.161 252.943C244.24 252.934 244.31 252.991 244.32 253.068C244.36 253.411 244.666 254.431 245.054 255.723C245.575 257.461 246.225 259.624 246.648 261.512C246.659 261.591 247.602 268.169 253.279 270.834C253.351 270.868 253.38 270.952 253.347 271.024C253.323 271.076 253.272 271.107 253.218 271.107V271.105Z" fill="#A7704C"/>
<path d="M242.889 246.347C242.889 246.347 242.889 244.849 244.148 245.084C244.779 245.202 245.271 245.705 245.422 246.329L245.742 247.662C245.797 247.888 245.737 248.129 245.575 248.299C245.168 248.728 244.302 249.396 243.303 248.724L242.889 246.349V246.347Z" fill="#E6E7E8"/>
<path d="M249.303 252.444L250.476 252.111C250.835 252.01 251.043 251.636 250.941 251.277L250.437 249.503C250.227 248.766 249.537 248.249 248.775 248.31C248.32 248.346 247.934 248.586 247.945 249.304L248.681 252.089C248.753 252.361 249.034 252.522 249.305 252.444H249.303Z" fill="#E6E7E8"/>
<path d="M235.201 254.701L234.842 255.557C234.728 255.83 234.853 256.141 235.122 256.262C236.123 256.715 238.467 257.52 239.794 255.888C239.794 255.888 240.418 255.342 235.201 254.701Z" fill="#E6E7E8"/>
<path d="M238.518 76.1366C238.518 76.1366 226.555 93.3635 210.265 90.5065C210.265 90.5065 224.789 90.5875 238.518 76.1366Z" fill="#072138"/>
<path d="M243.066 258.797C243.066 258.797 244.176 264.907 244.657 265.844C244.657 265.844 244.465 266.232 245.761 267.81" fill="#A7704C"/>
<path d="M223.064 103.58C222.957 103.58 222.865 103.501 222.852 103.393C222.838 103.275 222.92 103.168 223.038 103.153L228.331 102.489C228.447 102.474 228.555 102.557 228.57 102.675C228.585 102.792 228.502 102.899 228.384 102.914L223.092 103.578C223.092 103.578 223.073 103.578 223.064 103.578V103.58Z" fill="#A7704C"/>
<path d="M249.904 104.061C249.887 104.061 249.871 104.061 249.854 104.057L244.608 103.096C244.492 103.074 244.414 102.964 244.436 102.848C244.458 102.732 244.569 102.654 244.685 102.676L249.931 103.637C250.047 103.659 250.125 103.77 250.104 103.886C250.086 103.985 250.001 104.057 249.906 104.061H249.904Z" fill="#A7704C"/>
<path d="M241.979 80.4479C241.979 80.4479 241.972 75.1333 243.053 72.5064C243.097 72.3978 243.253 72.4291 243.253 72.5469C243.244 73.9662 243.119 78.2591 241.979 80.4479Z" fill="#FFD0B0"/>
<path d="M182.263 217.961C182.263 217.961 179.384 205.207 182.263 196.568C182.263 196.568 181.924 214.9 182.263 217.961Z" fill="#066956"/>
<path d="M157.024 253.453C157.024 253.453 165.827 247.233 175.619 251.769C175.619 251.769 161.549 250.189 157.024 253.453Z" fill="#066956"/>
<path d="M45.075 345.581H434.835C435.358 345.581 435.783 346.006 435.783 346.529V356.348C435.783 365.822 428.092 373.513 418.619 373.513H58.5815C50.6031 373.513 44.127 367.037 44.127 359.058V346.527C44.127 346.005 44.5522 345.579 45.075 345.579V345.581Z" fill="#072138"/>
<path d="M205.822 345.614H273.931C274.258 345.614 274.525 345.881 274.525 346.209V349.922C274.525 354.706 270.641 358.592 265.855 358.592H214.075C209.191 358.592 205.226 354.627 205.226 349.743V346.209C205.226 345.881 205.493 345.614 205.82 345.614H205.822Z" fill="#8D9092"/>
<path d="M340.036 333.218H130.972V341.528H340.036V333.218Z" fill="#878AA9"/>
<path d="M246.635 317.153C252.991 310.797 252.991 300.492 246.635 294.136C240.279 287.781 229.974 287.781 223.619 294.136C217.263 300.492 217.263 310.797 223.619 317.153C229.974 323.509 240.279 323.509 246.635 317.153Z" fill="#ED1C24" stroke="#F1F2F2" stroke-miterlimit="10"/>
<path d="M240.038 307.589L238.69 308.937L242.886 313.132L244.233 311.785C244.403 311.615 244.401 311.343 244.233 311.173L240.649 307.589C240.48 307.42 240.207 307.42 240.038 307.589ZM227.069 302.608C227.568 304.944 230.467 308.018 231.688 309.229C232.899 310.45 235.971 313.349 238.309 313.848C239.222 314.042 241.142 314.406 242.497 313.456L238.337 309.296C238.337 309.296 238.33 309.305 238.326 309.309C237.919 309.533 236.839 309.762 234.953 307.645L234.646 307.337C233.584 306.275 233.582 306.273 233.582 306.273L233.275 305.966C231.158 304.081 231.384 302.998 231.61 302.593C231.614 302.589 231.62 302.586 231.623 302.582L227.463 298.422C226.513 299.777 226.879 301.697 227.071 302.61L227.069 302.608ZM229.133 296.686L227.785 298.033L231.98 302.229L233.328 300.881C233.497 300.712 233.496 300.439 233.328 300.272L229.742 296.686C229.574 296.518 229.3 296.518 229.133 296.686Z" fill="white"/>
<path d="M281.097 297.262C282.104 297.262 282.925 298.081 282.925 299.09V304.316C282.925 305.323 282.106 306.144 281.097 306.144C280.088 306.144 279.269 305.325 279.269 304.316V299.09C279.269 298.083 280.088 297.262 281.097 297.262ZM281.097 296.504C279.669 296.504 278.511 297.662 278.511 299.09V304.316C278.511 305.745 279.669 306.903 281.097 306.903C282.526 306.903 283.683 305.745 283.683 304.316V299.09C283.683 297.662 282.526 296.504 281.097 296.504Z" fill="#F1F2F2"/>
<path d="M281.098 314.432C280.888 314.432 280.718 314.262 280.718 314.053V309.117C277.874 308.922 275.619 306.546 275.619 303.652V302.094C275.619 301.884 275.788 301.715 275.998 301.715C276.208 301.715 276.378 301.884 276.378 302.094V303.652C276.378 306.255 278.495 308.372 281.098 308.372H281.477V314.053C281.477 314.262 281.307 314.432 281.098 314.432Z" fill="#F1F2F2"/>
<path d="M281.098 309.13C280.888 309.13 280.719 308.961 280.719 308.751C280.719 308.541 280.888 308.372 281.098 308.372C283.701 308.372 285.818 306.255 285.818 303.652V302.094C285.818 301.884 285.987 301.715 286.197 301.715C286.407 301.715 286.576 301.884 286.576 302.094V303.652C286.576 306.673 284.119 309.13 281.098 309.13Z" fill="#F1F2F2"/>
<path d="M283.44 314.485H278.827C278.588 314.485 278.395 314.292 278.395 314.053C278.395 313.813 278.588 313.62 278.827 313.62H283.44C283.68 313.62 283.873 313.813 283.873 314.053C283.873 314.292 283.68 314.485 283.44 314.485Z" fill="#F1F2F2"/>
<path d="M195.458 311.451H182.861C181.755 311.451 180.856 310.551 180.856 309.445V302.921C180.856 301.815 181.757 300.916 182.861 300.916H195.458C196.565 300.916 197.465 301.816 197.465 302.921V309.445C197.465 310.551 196.565 311.451 195.458 311.451ZM182.861 301.675C182.173 301.675 181.613 302.234 181.613 302.923V309.447C181.613 310.135 182.173 310.695 182.861 310.695H195.458C196.147 310.695 196.706 310.135 196.706 309.447V302.923C196.706 302.234 196.147 301.675 195.458 301.675H182.861ZM189.159 309.399C187.386 309.399 185.945 307.957 185.945 306.185C185.945 304.412 187.386 302.971 189.159 302.971C190.932 302.971 192.373 304.412 192.373 306.185C192.373 307.957 190.932 309.399 189.159 309.399ZM189.159 303.727C187.804 303.727 186.703 304.83 186.703 306.183C186.703 307.536 187.806 308.639 189.159 308.639C190.512 308.639 191.614 307.536 191.614 306.183C191.614 304.83 190.512 303.727 189.159 303.727Z" fill="#F1F2F2"/>
<path d="M186.704 301.675H182.482V299.512H186.704V301.675ZM183.241 300.916H185.945V300.27H183.241V300.916Z" fill="#F1F2F2"/>
<path d="M122.544 174.413C122.544 174.413 106.656 158.414 101.28 154.65C100.373 154.013 99.2628 153.715 98.1619 153.853C97.0777 153.987 95.8921 154.545 95.5037 156.24C95.1871 157.625 95.5774 159.079 96.5162 160.145C99.7745 163.847 110.067 175.38 116.341 180.588L122.542 174.413H122.544Z" fill="#207D80"/>
<path d="M123.246 175.308L117.258 181.287L123.055 185.771C123.055 185.771 124.522 182.581 127.712 181.37L123.246 175.31V175.308Z" fill="#207D80"/>
<path d="M142.939 196.638C143.615 195.624 143.092 194.247 141.927 193.89C140.824 193.549 139.429 192.597 139.131 189.982C139.131 189.982 138.03 182.706 128.923 183.091C128.923 183.091 125.479 184.75 125.096 187.428C125.096 187.428 124.339 194.619 131.053 197.838C133.135 198.836 135.464 199.191 137.756 198.926C139.639 198.709 141.944 198.131 142.938 196.638H142.939Z" fill="#207D80"/>
<path d="M458.679 286.193H433.084C430.683 286.193 428.739 288.139 428.739 290.537V306.759C428.739 309.16 430.685 311.103 433.084 311.103H436.3L432.152 318.301L441.55 311.103H458.679C461.08 311.103 463.024 309.158 463.024 306.759V290.537C463.024 288.137 461.078 286.193 458.679 286.193Z" fill="#FBB961"/>
<path d="M455.992 292.43H435.847C435.4 292.43 435.037 292.792 435.037 293.24V293.451C435.037 293.899 435.4 294.261 435.847 294.261H455.992C456.439 294.261 456.802 293.899 456.802 293.451V293.24C456.802 292.792 456.439 292.43 455.992 292.43Z" fill="white"/>
<path d="M455.992 297.306H435.847C435.4 297.306 435.037 297.669 435.037 298.116V298.328C435.037 298.775 435.4 299.138 435.847 299.138H455.992C456.439 299.138 456.802 298.775 456.802 298.328V298.116C456.802 297.669 456.439 297.306 455.992 297.306Z" fill="white"/>
<path d="M455.992 302.181H435.847C435.4 302.181 435.037 302.543 435.037 302.991V303.202C435.037 303.65 435.4 304.013 435.847 304.013H455.992C456.439 304.013 456.802 303.65 456.802 303.202V302.991C456.802 302.543 456.439 302.181 455.992 302.181Z" fill="white"/>
<path d="M364.754 129.08C378.509 129.08 389.661 117.929 389.661 104.173C389.661 90.4173 378.509 79.2661 364.754 79.2661C350.998 79.2661 339.847 90.4173 339.847 104.173C339.847 117.929 350.998 129.08 364.754 129.08Z" fill="#207D80"/>
<path d="M375.344 66.0324C376.974 65.5499 377.904 63.8374 377.422 62.2074C376.939 60.5774 375.227 59.6472 373.597 60.1297C371.967 60.6122 371.037 62.3247 371.519 63.9547C372.002 65.5847 373.714 66.5149 375.344 66.0324Z" fill="#207D80"/>
<path d="M428.697 98.3835C428.897 97.2233 428.119 96.1207 426.959 95.9207C425.799 95.7207 424.696 96.4991 424.496 97.6593C424.296 98.8195 425.074 99.9222 426.235 100.122C427.395 100.322 428.497 99.5437 428.697 98.3835Z" fill="#207D80"/>
<path d="M336.271 148.485C336.557 149.171 336.233 149.959 335.546 150.246C334.859 150.532 334.071 150.208 333.784 149.521C333.499 148.834 333.823 148.047 334.51 147.759C335.196 147.472 335.984 147.798 336.271 148.485Z" fill="#207D80"/>
<path d="M442.896 160.87C443.349 161.956 442.836 163.204 441.75 163.657C440.663 164.11 439.415 163.596 438.962 162.51C438.51 161.424 439.023 160.176 440.109 159.723C441.195 159.27 442.444 159.784 442.896 160.87Z" fill="#FBB961"/>
<path d="M355.231 84.9194C328.059 96.2462 309.636 114.075 314.082 124.741C318.527 135.407 344.16 134.871 371.331 123.545C398.502 112.218 416.926 94.3888 412.48 83.7228C408.034 73.0568 382.402 73.5925 355.231 84.9194ZM369.978 120.294C347.378 129.715 326.057 130.161 322.36 121.289C318.662 112.418 333.985 97.5882 356.587 88.1667C379.188 78.7451 400.509 78.2996 404.205 87.1708C407.904 96.0419 392.58 110.872 369.978 120.294Z" fill="#EB2128"/>
<path d="M339.933 102.034C339.933 102.034 340.362 93.323 346.86 86.8376L365.055 79.2532C365.055 79.2532 372.332 79.3802 377.3 82.6569L356.116 98.505L339.933 102.034Z" fill="#207D80"/>
<path d="M396.439 162.401C399.259 159.581 399.259 155.009 396.439 152.188C393.619 149.368 389.046 149.368 386.226 152.188C383.405 155.009 383.405 159.581 386.226 162.401C389.046 165.222 393.619 165.222 396.439 162.401Z" fill="#DB2E47"/>
<path d="M390.933 151.08C382.398 151.08 375.479 153.796 375.479 157.146C375.479 160.496 382.398 163.212 390.933 163.212C399.467 163.212 406.387 160.496 406.387 157.146C406.387 153.796 399.467 151.08 390.933 151.08ZM390.933 162.192C383.834 162.192 378.078 159.933 378.078 157.146C378.078 154.359 383.832 152.1 390.933 152.1C398.033 152.1 403.787 154.359 403.787 157.146C403.787 159.933 398.033 162.192 390.933 162.192Z" fill="#FBB961"/>
<path d="M384.93 153.954C384.93 153.954 386.016 151.671 388.479 150.661H394.195C394.195 150.661 396.128 151.507 397.092 152.938L389.655 154.815L384.932 153.954H384.93Z" fill="#DB2E47"/>
<path d="M317.016 153.665L317.76 155.172C317.811 155.276 317.909 155.347 318.023 155.364L319.687 155.605C319.974 155.647 320.088 155.999 319.88 156.202L318.677 157.374C318.594 157.455 318.557 157.569 318.575 157.683L318.859 159.34C318.908 159.626 318.608 159.843 318.353 159.708L316.865 158.926C316.764 158.873 316.642 158.873 316.539 158.926L315.052 159.708C314.796 159.843 314.496 159.626 314.546 159.34L314.829 157.683C314.849 157.569 314.811 157.455 314.728 157.374L313.524 156.202C313.316 155.999 313.432 155.647 313.717 155.605L315.381 155.364C315.496 155.347 315.593 155.276 315.645 155.172L316.388 153.665C316.517 153.405 316.887 153.405 317.014 153.665H317.016Z" fill="#EB2128"/>
<path d="M452.165 69.2259L453.001 70.9195C453.058 71.0355 453.169 71.1165 453.298 71.1349L455.166 71.4074C455.488 71.4534 455.617 71.8492 455.383 72.0774L454.03 73.3955C453.938 73.4857 453.896 73.6164 453.918 73.7434L454.236 75.6046C454.292 75.9249 453.955 76.1697 453.668 76.0188L451.996 75.1407C451.882 75.0799 451.746 75.0799 451.632 75.1407L449.96 76.0188C449.673 76.1697 449.336 75.9249 449.391 75.6046L449.71 73.7434C449.732 73.6164 449.69 73.4857 449.598 73.3955L448.244 72.0774C448.011 71.851 448.14 71.4552 448.462 71.4074L450.33 71.1349C450.457 71.1165 450.568 71.0355 450.627 70.9195L451.462 69.2259C451.606 68.9351 452.022 68.9351 452.165 69.2259Z" fill="#EB2128"/>
<path d="M445.927 120.549L447.402 123.537C447.503 123.741 447.698 123.883 447.923 123.916L451.22 124.395C451.789 124.478 452.015 125.176 451.603 125.577L449.217 127.902C449.053 128.06 448.98 128.29 449.018 128.515L449.582 131.799C449.679 132.364 449.084 132.797 448.576 132.53L445.627 130.98C445.425 130.873 445.184 130.873 444.983 130.98L442.034 132.53C441.526 132.797 440.931 132.366 441.029 131.799L441.592 128.515C441.631 128.29 441.555 128.06 441.393 127.902L439.008 125.577C438.597 125.176 438.823 124.478 439.39 124.395L442.687 123.916C442.914 123.883 443.107 123.741 443.208 123.537L444.683 120.549C444.937 120.034 445.671 120.034 445.926 120.549H445.927Z" fill="#EB2128"/>
<path d="M307.543 79.9766L308.522 81.9611C308.589 82.0973 308.719 82.1912 308.868 82.2133L311.059 82.5318C311.437 82.587 311.587 83.0509 311.313 83.316L309.728 84.8605C309.62 84.9654 309.57 85.1182 309.596 85.2673L309.969 87.4487C310.034 87.8243 309.64 88.1114 309.301 87.9329L307.342 86.902C307.208 86.832 307.048 86.832 306.913 86.902L304.955 87.9329C304.618 88.1096 304.222 87.8243 304.287 87.4487L304.66 85.2673C304.686 85.1182 304.636 84.9654 304.528 84.8605L302.943 83.316C302.67 83.049 302.821 82.587 303.197 82.5318L305.387 82.2133C305.536 82.1912 305.667 82.0973 305.733 81.9611L306.713 79.9766C306.882 79.6342 307.37 79.6342 307.538 79.9766H307.543Z" fill="#EB2128"/>
<path d="M343.318 53.0373L344.427 55.2832C344.502 55.436 344.649 55.5428 344.819 55.5686L347.296 55.9294C347.724 55.9919 347.893 56.5166 347.585 56.8167L345.792 58.5637C345.669 58.6833 345.614 58.8545 345.643 59.0239L346.067 61.4907C346.14 61.9159 345.693 62.2399 345.312 62.0392L343.096 60.874C342.945 60.7948 342.762 60.7948 342.611 60.874L340.395 62.0392C340.014 62.2399 339.567 61.9159 339.64 61.4907L340.064 59.0239C340.093 58.8545 340.036 58.6833 339.915 58.5637L338.122 56.8167C337.812 56.5148 337.984 55.9919 338.411 55.9294L340.888 55.5686C341.058 55.5446 341.205 55.4378 341.281 55.2832L342.389 53.0373C342.58 52.6508 343.131 52.6508 343.322 53.0373H343.318Z" fill="#EB2128"/>
<path d="M163.419 127.085L156.613 132.239C156.613 132.239 136.828 111.463 118.684 114.316C115.468 114.823 111.935 113.44 109.919 110.883C103.894 103.24 81.4412 91.1931 71.2465 92.5277L70.0352 85.0464L81.2847 84.3008L146.424 101.75L168.167 117.151L163.419 127.085Z" fill="#DB2E47"/>
<path d="M86.8772 49.8066L99.3436 23.727C99.3436 23.727 124.079 21.6928 145.08 46.7452C145.08 46.7452 166.215 45.0203 191.435 68.4675L163.417 127.085C163.417 127.085 141.325 104.046 115.753 108.1C115.753 108.1 93.4675 83.535 70.0332 85.0464L86.8772 49.8066Z" fill="#F2E6D7"/>
<path d="M99.3436 23.727L86.8772 49.8066L70.0332 85.0464C93.4675 83.5369 115.753 108.1 115.753 108.1L145.08 46.7434C124.455 19.5427 99.3436 23.7252 99.3436 23.7252V23.727Z" fill="#E2D8CF"/>
<path d="M147.859 54.5782C147.859 54.5782 166.058 54.4106 185.201 72.4272C185.201 72.4272 169.838 56.9878 147.859 54.5782Z" fill="#5D1510"/>
<path d="M145.301 59.9314C145.301 59.9314 163.5 59.7639 182.643 77.7805C182.643 77.7805 167.279 62.3411 145.301 59.9314Z" fill="#5D1510"/>
<path d="M142.741 65.2847C142.741 65.2847 160.94 65.1171 180.083 83.1337C180.083 83.1337 164.719 67.6944 142.741 65.2847Z" fill="#5D1510"/>
<path d="M140.185 70.6379C140.185 70.6379 158.383 70.4704 177.527 88.487C177.527 88.487 162.163 73.0476 140.185 70.6379Z" fill="#5D1510"/>
<path d="M137.626 75.9912C137.626 75.9912 155.825 75.8237 174.968 93.8403C174.968 93.8403 159.604 78.4009 137.626 75.9912Z" fill="#5D1510"/>
<path d="M135.067 81.3426C135.067 81.3426 153.266 81.1751 172.409 99.1916C172.409 99.1916 157.046 83.7523 135.067 81.3426Z" fill="#5D1510"/>
<path d="M132.508 86.6958C132.508 86.6958 150.707 86.5283 169.85 104.545C169.85 104.545 154.486 89.1055 132.508 86.6958Z" fill="#5D1510"/>
<path d="M129.949 92.0491C129.949 92.0491 148.148 91.8816 167.291 109.898C167.291 109.898 151.927 94.4588 129.949 92.0491Z" fill="#5D1510"/>
<path d="M127.391 97.4023C127.391 97.4023 145.589 97.2348 164.733 115.251C164.733 115.251 149.369 99.812 127.391 97.4023Z" fill="#5D1510"/>
<path d="M100.785 32.0772C100.785 32.0772 118.984 31.9097 138.127 49.9263C138.127 49.9263 122.763 34.4869 100.785 32.0772Z" fill="#5D1510"/>
<path d="M98.2266 37.4304C98.2266 37.4304 116.425 37.2629 135.569 55.2795C135.569 55.2795 120.205 39.8401 98.2266 37.4304Z" fill="#5D1510"/>
<path d="M95.667 42.7837C95.667 42.7837 113.866 42.6162 133.009 60.6328C133.009 60.6328 117.645 45.1934 95.667 42.7837Z" fill="#5D1510"/>
<path d="M93.1104 48.137C93.1104 48.137 111.309 47.9694 130.452 65.986C130.452 65.986 115.089 50.5467 93.1104 48.137Z" fill="#5D1510"/>
<path d="M90.5518 53.4902C90.5518 53.4902 108.751 53.3227 127.894 71.3393C127.894 71.3393 112.53 55.8999 90.5518 53.4902Z" fill="#5D1510"/>
<path d="M87.9932 58.8435C87.9932 58.8435 106.192 58.6759 125.335 76.6926C125.335 76.6926 109.971 61.2532 87.9932 58.8435Z" fill="#5D1510"/>
<path d="M85.4336 64.1948C85.4336 64.1948 103.632 64.0273 122.776 82.0439C122.776 82.0439 107.412 66.6045 85.4336 64.1948Z" fill="#5D1510"/>
<path d="M82.875 69.5481C82.875 69.5481 101.074 69.3806 120.217 87.3972C120.217 87.3972 104.853 71.9578 82.875 69.5481Z" fill="#5D1510"/>
<path d="M80.3164 74.9014C80.3164 74.9014 98.5153 74.7339 117.658 92.7505C117.658 92.7505 102.295 77.3111 80.3164 74.9014Z" fill="#5D1510"/>
<path d="M449.721 248.821L448.83 259.325C448.83 259.325 413.416 260.323 401.047 279.332C398.854 282.703 394.666 284.803 390.655 284.54C378.664 283.756 349.057 294.412 341.861 304.872L333.993 299.804L342.601 288.862L412.429 243.492L444.526 236.257L449.721 248.821Z" fill="#207D80"/>
<path d="M315.565 255.233L301.926 222.247C301.926 222.247 320.493 197.862 360.836 199.283C360.836 199.283 376.711 178.46 419.068 174.682L449.724 248.821C449.724 248.821 410.329 250.066 392.924 276.885C392.924 276.885 351.968 277.047 333.996 299.802L315.567 255.231L315.565 255.233Z" fill="#F2E6D7"/>
<path d="M301.926 222.247L315.565 255.233L333.994 299.804C351.966 277.049 392.922 276.887 392.922 276.887L360.834 199.283C318.829 195.744 301.924 222.247 301.924 222.247H301.926Z" fill="#E2D8CF"/>
<path d="M370.321 203.203C370.321 203.203 385.201 186.361 417.551 183.675C417.551 183.675 390.689 185.022 370.321 203.203Z" fill="#5D1510"/>
<path d="M373.119 209.973C373.119 209.973 387.999 193.131 420.349 190.445C420.349 190.445 393.487 191.793 373.119 209.973Z" fill="#5D1510"/>
<path d="M375.919 216.744C375.919 216.744 390.799 199.902 423.148 197.216C423.148 197.216 396.286 198.564 375.919 216.744Z" fill="#5D1510"/>
<path d="M378.72 223.515C378.72 223.515 393.599 206.673 425.949 203.987C425.949 203.987 399.087 205.334 378.72 223.515Z" fill="#5D1510"/>
<path d="M381.52 230.284C381.52 230.284 396.399 213.442 428.749 210.756C428.749 210.756 401.887 212.103 381.52 230.284Z" fill="#5D1510"/>
<path d="M384.317 237.054C384.317 237.054 399.197 220.212 431.547 217.527C431.547 217.527 404.685 218.874 384.317 237.054Z" fill="#5D1510"/>
<path d="M387.117 243.825C387.117 243.825 401.997 226.983 434.347 224.297C434.347 224.297 407.485 225.645 387.117 243.825Z" fill="#5D1510"/>
<path d="M389.918 250.596C389.918 250.596 404.798 233.754 437.147 231.068C437.147 231.068 410.285 232.415 389.918 250.596Z" fill="#5D1510"/>
<path d="M392.717 257.367C392.717 257.367 407.597 240.525 439.946 237.839C439.946 237.839 413.084 239.186 392.717 257.367Z" fill="#5D1510"/>
<path d="M310.78 227.821C310.78 227.821 325.66 210.979 358.01 208.293C358.01 208.293 331.148 209.64 310.78 227.821Z" fill="#5D1510"/>
<path d="M313.58 234.591C313.58 234.591 328.46 217.749 360.809 215.063C360.809 215.063 333.947 216.411 313.58 234.591Z" fill="#5D1510"/>
<path d="M316.378 241.362C316.378 241.362 331.258 224.52 363.607 221.834C363.607 221.834 336.745 223.182 316.378 241.362Z" fill="#5D1510"/>
<path d="M319.179 248.133C319.179 248.133 334.058 231.291 366.408 228.605C366.408 228.605 339.546 229.952 319.179 248.133Z" fill="#5D1510"/>
<path d="M321.979 254.904C321.979 254.904 336.858 238.061 369.208 235.376C369.208 235.376 342.346 236.723 321.979 254.904Z" fill="#5D1510"/>
<path d="M324.778 261.674C324.778 261.674 339.658 244.832 372.008 242.146C372.008 242.146 345.146 243.494 324.778 261.674Z" fill="#5D1510"/>
<path d="M327.576 268.445C327.576 268.445 342.456 251.603 374.806 248.917C374.806 248.917 347.944 250.265 327.576 268.445Z" fill="#5D1510"/>
<path d="M330.377 275.216C330.377 275.216 345.257 258.374 377.606 255.688C377.606 255.688 350.744 257.035 330.377 275.216Z" fill="#5D1510"/>
<path d="M333.176 281.986C333.176 281.986 348.056 265.144 380.405 262.458C380.405 262.458 353.543 263.806 333.176 281.986Z" fill="#5D1510"/>
<path d="M93.4748 249.569L73.2823 313.103C73.065 313.784 72.3379 314.161 71.6568 313.944L71.2113 313.802C70.5302 313.585 70.1528 312.858 70.37 312.177L90.5625 248.643C90.7797 247.962 91.5069 247.584 92.188 247.801L92.6335 247.943C93.3146 248.16 93.692 248.888 93.4748 249.569Z" fill="#CC4528"/>
<path opacity="0.8" d="M96.8973 307.444C91.3581 305.343 91.5495 297.893 91.5495 297.893V274.209H92.5418C93.5966 274.209 94.4526 273.353 94.4526 272.298C94.4526 271.243 93.5966 270.387 92.5418 270.387H71.7215C70.6667 270.387 69.8107 271.243 69.8107 272.298C69.8107 273.353 70.6667 274.209 71.7215 274.209H72.294V297.893C72.294 297.893 72.4855 305.343 66.9463 307.444C66.9463 307.444 53.333 313.556 58.2298 331.703C58.2298 331.703 60.0706 343.737 73.8219 347.748H90.0198C103.773 343.737 105.612 331.703 105.612 331.703C110.509 313.557 96.8954 307.444 96.8954 307.444H96.8973Z" fill="#F15F35"/>
<path d="M111.834 312.411H54.5293V353.287H111.834V312.411Z" fill="#DD5231"/>
<path opacity="0.8" d="M63.0141 298.21C59.8626 297.371 59.6527 292.958 59.6527 292.958V244.637C60.4553 244.563 61.0831 243.89 61.0831 243.069C61.0831 242.198 60.378 241.493 59.5073 241.493H44.5925C43.7218 241.493 43.0168 242.198 43.0168 243.069C43.0168 243.831 43.558 244.466 44.2778 244.613V292.958C44.2778 292.958 44.0679 297.369 40.9163 298.21C40.9163 298.21 21.2448 304.476 23.7391 326.994C24.4276 333.216 27.2147 339.042 31.7543 343.352C35.2796 346.699 40.2996 349.675 47.0078 349.675H56.9209C63.629 349.675 68.6491 346.7 72.1743 343.352C76.7139 339.041 79.4992 333.214 80.1895 326.994C82.6839 304.476 63.0123 298.21 63.0123 298.21H63.0141Z" fill="#30A549"/>
<path d="M105.475 269.931L127.285 332.443C127.462 332.953 127.195 333.509 126.685 333.686L125.676 334.037C125.166 334.214 124.611 333.947 124.434 333.437L102.623 270.925C102.391 270.258 102.743 269.527 103.409 269.296L103.846 269.143C104.512 268.911 105.243 269.262 105.475 269.929V269.931Z" fill="#D32A46"/>
<g opacity="0.9">
<path opacity="0.9" d="M134.128 338.903L124.309 300.003V288.717C125.124 288.404 125.702 287.614 125.702 286.69C125.702 285.491 124.73 284.518 123.53 284.518H106.345C105.145 284.518 104.173 285.49 104.173 286.69C104.173 287.588 104.718 288.358 105.495 288.689V300.003L95.6757 338.903C95.6757 338.903 93.787 345.889 101.907 346.645H127.895C136.015 345.89 134.126 338.903 134.126 338.903H134.128Z" fill="#EF3E53"/>
<g opacity="0.9">
<path opacity="0.9" d="M141.694 317.331H87.6865V356.556H141.694V317.331Z" fill="#E0354C"/>
</g>
</g>
<path d="M87.3413 323.417H12.5596V370.472H87.3413V323.417Z" fill="#268340"/>
<path d="M211.332 14.6091L211.142 14.6754L200.45 18.4529L205.513 13.2984" fill="#EF3E52"/>
<path d="M203.026 8.17346L200.45 18.4529L205.513 13.2984L233.109 2.20166L232.807 0.918579L203.026 8.17346Z" fill="#DB2E47"/>
<path d="M195.139 0L202.83 9.58356L231.693 2.01759L205.512 13.2984L212.87 27.6149L234.104 0.951716L195.139 0Z" fill="#FBB961"/>
<path d="M17.7529 166.15L17.9278 166.33L27.7249 176.468L24.9544 167.922" fill="#EF3E52"/>
<path d="M30.5656 163.602L27.7251 176.468L24.9546 167.922L0.412109 140.258L1.45957 139L30.5656 163.602Z" fill="#F1A951"/>
<path d="M43.8753 158.887L30.0007 165.281L2.09123 140.84L24.9549 167.922L8.8233 179.767L0 138.314L43.8753 158.887Z" fill="#207D80"/>
</svg>
